<?xml version="1.0" encoding="utf-8"?>
<!-- Generator: Adobe Illustrator 17.0.0, SVG Export Plug-In . SVG Version: 6.00 Build 0)  -->
<!DOCTYPE svg PUBLIC "-//W3C//DTD SVG 1.1//EN" "http://www.w3.org/Graphics/SVG/1.1/DTD/svg11.dtd">
<svg version="1.1" id="Calque_1" xmlns="http://www.w3.org/2000/svg" xmlns:xlink="http://www.w3.org/1999/xlink" x="0px" y="0px"
	 width="512px" height="512px" viewBox="0 0 512 512" enable-background="new 0 0 512 512" xml:space="preserve">
<g>
	<g>
		<g>
			<g id="XMLID_1_">
				<g>
					<path fill="#1E294C" d="M452.292,89.95c8.87,0,16.07,7.2,16.07,16.08c0,8.87-7.2,16.07-16.07,16.07
						c-8.88,0-16.08-7.2-16.08-16.07C436.212,97.15,443.412,89.95,452.292,89.95z"/>
					<path fill="#1E294C" d="M422.502,163.62c8.87,0,16.07,7.2,16.07,16.08s-7.2,16.07-16.07,16.07c-8.88,0-16.08-7.19-16.08-16.07
						C406.422,170.82,413.622,163.62,422.502,163.62z"/>
					<path fill="#1E294C" d="M373.222,239.92c8.88,0,16.08,7.2,16.08,16.08s-7.2,16.07-16.08,16.07s-16.07-7.19-16.07-16.07v-0.01
						C357.162,247.11,364.342,239.92,373.222,239.92z"/>
					<path fill="#1E294C" d="M422.502,316.22c8.87,0,16.07,7.2,16.07,16.08c0,8.88-7.2,16.07-16.07,16.07
						c-8.88,0-16.08-7.19-16.08-16.07C406.422,323.42,413.622,316.22,422.502,316.22z"/>
					<path fill="#1E294C" d="M452.292,389.9c8.87,0,16.07,7.2,16.07,16.07c0,8.88-7.2,16.08-16.07,16.08
						c-8.88,0-16.08-7.2-16.08-16.08C436.212,397.1,443.412,389.9,452.292,389.9z"/>
					<path fill="#00B5D3" d="M305.92,102.83v306.34c-2.77,0-5,2.24-5,5c0,35.59-28.96,64.55-64.55,64.55
						c-35.59,0-64.55-28.96-64.55-64.55c0-35.59,28.96-64.55,64.55-64.55c2.76,0,5-2.23,5-5c0-2.76-2.24-5-5-5
						c-41.11,0-74.55,33.45-74.55,74.55c0,1.16,0.04,2.31,0.09,3.46c-9.46,0.29-18.95-1.53-27.71-5.34
						c-30.23-13.17-45.66-46.81-35.9-78.24c0.72-2.3,1.56-4.56,2.5-6.73c6.89-15.8,19.51-27.98,35.56-34.29
						c16.05-6.31,33.59-5.99,49.39,0.9c2.53,1.1,5.48-0.06,6.58-2.59c1.11-2.53-0.05-5.48-2.58-6.58
						c-18.26-7.95-38.52-8.32-57.05-1.04c-18.53,7.29-33.11,21.35-41.07,39.61c-0.36,0.83-0.69,1.69-1.02,2.55
						c-14.91-7.05-26.4-19.3-32.46-34.71c-4.47-11.36-5.61-23.47-3.45-35.18c0.89-4.83,2.34-9.6,4.35-14.22
						c4.69-10.77,12.1-19.91,21.56-26.66c14.38,17.28,35.67,26.77,57.43,26.77c10.32,0,20.74-2.13,30.58-6.59
						c2.52-1.14,3.63-4.1,2.49-6.61c-1.13-2.52-4.1-3.64-6.61-2.5c-27.75,12.56-60.87,3.84-78.77-20.76
						c-2.58-3.52-4.82-7.36-6.65-11.42c-14.69-32.41-0.26-70.73,32.16-85.43c16.28-7.37,34.8-7.63,51.25-0.85
						c2.13,16.16,9.45,31.1,21.17,42.82c14.08,14.08,32.8,21.84,52.71,21.84c2.76,0,5-2.24,5-5s-2.24-5-5-5
						c-17.24,0-33.45-6.72-45.64-18.91c-12.19-12.19-18.91-28.4-18.91-45.64c0-35.59,28.96-64.55,64.55-64.55
						c35.59,0,64.55,28.96,64.55,64.55C300.92,100.59,303.15,102.83,305.92,102.83z"/>
					<path fill="#1E294C" d="M305.922,409.17c2.76,0,5,2.24,5,5c0,41.11-33.45,74.55-74.55,74.55c-36.53,0-66.98-26.41-73.32-61.14
						c-1.02,0.04-2.05,0.08-3.07,0.08c-10.19,0.01-20.35-2.1-29.78-6.2c-33.5-14.61-51.25-50.98-42.65-85.98
						c-17.83-8.05-31.55-22.44-38.71-40.66c-7.28-18.53-6.91-38.79,1.04-57.04c5.42-12.43,13.96-22.98,24.87-30.78
						c-1.78-2.83-3.39-5.79-4.78-8.87c-16.96-37.43-0.29-81.7,37.15-98.67c17.34-7.85,36.89-8.73,54.73-2.67
						c0.56-40.62,33.76-73.51,74.52-73.51c41.1,0,74.55,33.44,74.55,74.55c0,2.76-2.24,5-5,5c-2.77,0-5-2.24-5-5
						c0-35.59-28.96-64.55-64.55-64.55s-64.55,28.96-64.55,64.55c0,17.24,6.72,33.45,18.91,45.64
						c12.19,12.19,28.4,18.91,45.64,18.91c2.76,0,5,2.24,5,5s-2.24,5-5,5c-19.91,0-38.63-7.76-52.71-21.84
						c-11.72-11.72-19.04-26.66-21.17-42.82c-16.45-6.78-34.97-6.52-51.25,0.85c-32.42,14.7-46.85,53.02-32.16,85.43
						c1.83,4.06,4.07,7.9,6.65,11.42c17.9,24.6,51.02,33.32,78.77,20.76c2.51-1.14,5.48-0.02,6.61,2.5
						c1.14,2.51,0.03,5.47-2.49,6.61c-9.84,4.46-20.26,6.59-30.58,6.59c-21.76,0-43.05-9.49-57.43-26.77
						c-9.46,6.75-16.87,15.89-21.56,26.66c-6.89,15.81-7.21,33.35-0.9,49.4c6.06,15.41,17.55,27.66,32.46,34.71
						c0.33-0.86,0.66-1.72,1.02-2.55c7.96-18.26,22.54-32.32,41.07-39.61c18.53-7.28,38.79-6.91,57.05,1.04
						c2.53,1.1,3.69,4.05,2.58,6.58c-1.1,2.53-4.05,3.69-6.58,2.59c-15.8-6.89-33.34-7.21-49.39-0.9s-28.67,18.49-35.56,34.29
						c-0.94,2.17-1.78,4.43-2.5,6.73c-9.76,31.43,5.67,65.07,35.9,78.24c8.76,3.81,18.25,5.63,27.71,5.34
						c-0.05-1.15-0.09-2.3-0.09-3.46c0-41.1,33.44-74.55,74.55-74.55c2.76,0,5,2.24,5,5c0,2.77-2.24,5-5,5
						c-35.59,0-64.55,28.96-64.55,64.55s28.96,64.55,64.55,64.55s64.55-28.96,64.55-64.55
						C300.922,411.41,303.152,409.17,305.922,409.17z"/>
				</g>
				<g>
					<polyline fill="none" points="305.922,356.96 305.922,309.44 305.922,255.99 305.922,202.56 305.922,155.03 305.922,102.83 
											"/>
					<line fill="none" x1="305.922" y1="409.17" x2="305.922" y2="356.96"/>
					<path fill="#1E294C" d="M373.222,239.92c8.88,0,16.08,7.2,16.08,16.08s-7.2,16.07-16.08,16.07s-16.07-7.19-16.07-16.07v-0.01
						C357.162,247.11,364.342,239.92,373.222,239.92z"/>
					<path fill="#1E294C" d="M422.502,316.22c8.87,0,16.07,7.2,16.07,16.08c0,8.88-7.2,16.07-16.07,16.07
						c-8.88,0-16.08-7.19-16.08-16.07C406.422,323.42,413.622,316.22,422.502,316.22z"/>
					<path fill="#1E294C" d="M452.292,389.9c8.87,0,16.07,7.2,16.07,16.07c0,8.88-7.2,16.08-16.07,16.08
						c-8.88,0-16.08-7.2-16.08-16.08C436.212,397.1,443.412,389.9,452.292,389.9z"/>
					<path fill="#1E294C" d="M422.502,163.62c8.87,0,16.07,7.2,16.07,16.08s-7.2,16.07-16.07,16.07c-8.88,0-16.08-7.19-16.08-16.07
						C406.422,170.82,413.622,163.62,422.502,163.62z"/>
					<path fill="#1E294C" d="M452.292,89.95c8.87,0,16.07,7.2,16.07,16.08c0,8.87-7.2,16.07-16.07,16.07
						c-8.88,0-16.08-7.2-16.08-16.07C436.212,97.15,443.412,89.95,452.292,89.95z"/>
					<g>
						<path fill="#1E294C" d="M362.151,255.99c0-2.761-2.238-5-5-5h-117.61c-2.761,0-5,2.239-5,5c0,2.762,2.239,5,5,5h117.61
							C359.913,260.99,362.151,258.752,362.151,255.99z"/>
						<path fill="#1E294C" d="M386.162,335.83c0.234,0.235,0.492,0.444,0.768,0.629c0.118,0.079,0.245,0.132,0.367,0.199
							c0.162,0.09,0.32,0.188,0.493,0.259c0.162,0.067,0.331,0.105,0.499,0.155c0.145,0.043,0.284,0.099,0.434,0.129
							c0.323,0.064,0.651,0.099,0.979,0.099h16.72c2.762,0,5-2.238,5-5s-2.238-5-5-5h-14.649l-21.39-21.389
							c-0.234-0.235-0.492-0.444-0.768-0.629c-0.119-0.079-0.247-0.133-0.371-0.201c-0.161-0.089-0.317-0.186-0.489-0.257
							c-0.164-0.068-0.334-0.107-0.503-0.156c-0.144-0.042-0.281-0.098-0.43-0.128c-0.323-0.064-0.651-0.099-0.979-0.099h-106.61
							c-2.761,0-5,2.238-5,5s2.239,5,5,5h104.54L386.162,335.83z"/>
						<path fill="#1E294C" d="M436.212,400.97h-45.619l-47.555-47.546c-0.003-0.003-0.007-0.005-0.01-0.008
							c-0.23-0.229-0.483-0.434-0.754-0.615c-0.117-0.078-0.244-0.132-0.367-0.199c-0.163-0.09-0.321-0.188-0.495-0.26
							c-0.156-0.065-0.32-0.101-0.481-0.149c-0.151-0.045-0.296-0.103-0.453-0.134c-0.303-0.06-0.611-0.089-0.919-0.093
							c-0.02,0-0.038-0.006-0.059-0.006h-62.721c-2.762,0-5,2.238-5,5s2.238,5,5,5h60.65l47.555,47.546
							c0.003,0.003,0.007,0.005,0.01,0.008c0.23,0.229,0.483,0.434,0.753,0.615c0.119,0.08,0.249,0.134,0.373,0.203
							c0.161,0.089,0.316,0.185,0.487,0.256c0.162,0.067,0.33,0.105,0.497,0.154c0.146,0.043,0.285,0.099,0.436,0.129
							c0.323,0.064,0.651,0.099,0.979,0.099h47.69c2.762,0,5-2.238,5-5S438.974,400.97,436.212,400.97z"/>
						<path fill="#1E294C" d="M260.231,207.56h106.61c0.328,0,0.656-0.034,0.979-0.099c0.149-0.03,0.287-0.085,0.43-0.128
							c0.169-0.05,0.339-0.088,0.503-0.156c0.168-0.07,0.32-0.165,0.478-0.252c0.128-0.07,0.26-0.126,0.382-0.208
							c0.275-0.184,0.532-0.392,0.764-0.625l21.394-21.394h14.649c2.762,0,5-2.239,5-5s-2.238-5-5-5H389.7
							c-0.017,0-0.032,0.005-0.049,0.005c-0.311,0.003-0.623,0.033-0.929,0.094c-0.152,0.03-0.292,0.086-0.438,0.13
							c-0.166,0.049-0.335,0.087-0.496,0.154c-0.168,0.07-0.32,0.165-0.478,0.251c-0.128,0.07-0.26,0.126-0.383,0.208
							c-0.275,0.184-0.531,0.392-0.764,0.625l-21.394,21.394h-104.54c-2.761,0-5,2.239-5,5S257.47,207.56,260.231,207.56z"/>
						<path fill="#1E294C" d="M276.781,160.03h62.614c0.036,0.001,0.071,0.01,0.107,0.01c1.279,0,2.559-0.488,3.535-1.464
							l47.555-47.546h45.62c2.762,0,5-2.239,5-5s-2.238-5-5-5h-47.687c-0.33,0-0.659,0.034-0.983,0.099
							c-0.141,0.028-0.271,0.081-0.407,0.121c-0.176,0.051-0.355,0.092-0.526,0.163c-0.163,0.068-0.311,0.161-0.465,0.245
							c-0.132,0.072-0.268,0.13-0.395,0.214c-0.275,0.184-0.531,0.392-0.764,0.625l-47.543,47.534h-60.66c-2.762,0-5,2.239-5,5
							S274.02,160.03,276.781,160.03z"/>
					</g>
				</g>
			</g>
		</g>
	</g>
	<linearGradient id="SVGID_1_" gradientUnits="userSpaceOnUse" x1="179.7803" y1="255.99" x2="179.7803" y2="478.72">
		<stop  offset="0" style="stop-color:#000000"/>
		<stop  offset="1" style="stop-color:#FFFFFF;stop-opacity:0"/>
	</linearGradient>
	<path opacity="0.1" fill="url(#SVGID_1_)" d="M305.92,255.99v153.18c-2.77,0-5,2.24-5,5c0,35.59-28.96,64.55-64.55,64.55
		c-35.59,0-64.55-28.96-64.55-64.55c0-35.59,28.96-64.55,64.55-64.55c2.76,0,5-2.23,5-5c0-2.76-2.24-5-5-5
		c-41.11,0-74.55,33.45-74.55,74.55c0,1.16,0.04,2.31,0.09,3.46c-9.46,0.29-18.95-1.53-27.71-5.34
		c-30.23-13.17-45.66-46.81-35.9-78.24c0.72-2.3,1.56-4.56,2.5-6.73c6.89-15.8,19.51-27.98,35.56-34.29
		c16.05-6.31,33.59-5.99,49.39,0.9c2.53,1.1,5.48-0.06,6.58-2.59c1.11-2.53-0.05-5.48-2.58-6.58c-18.26-7.95-38.52-8.32-57.05-1.04
		c-18.53,7.29-33.11,21.35-41.07,39.61c-0.36,0.83-0.69,1.69-1.02,2.55c-14.91-7.05-26.4-19.3-32.46-34.71
		c-4.47-11.36-5.61-23.47-3.45-35.18H305.92z"/>
</g>
</svg>
